<?xml version="1.0" standalone="no"?><!DOCTYPE svg PUBLIC "-//W3C//DTD SVG 1.1//EN" "http://www.w3.org/Graphics/SVG/1.1/DTD/svg11.dtd"><svg t="1749328809212" class="icon" viewBox="0 0 1024 1024" version="1.1" xmlns="http://www.w3.org/2000/svg" p-id="4855" xmlns:xlink="http://www.w3.org/1999/xlink" width="128" height="128"><path d="M338.898427 832.479234h56.391359l-1.888255-62.636546-54.503104 62.636546zM618.209406 189.070482h-180.955885l-19.591117 97.857589h220.138118l-19.591116-97.857589zM417.737783 375.913501a115.831817 115.831817 0 0 0 226.100632-35.707241 114.753891 114.753891 0 0 0-6.037893-35.390647h-220.138118a148.407043 148.407043 0 0 0-2.67597 16.063358 43.354485 43.354485 0 0 1 2.751349 55.03453z m194.392271-45.344503s13.018029 96.527143-85.589586 96.527143c-85.005395 0-79.027805-83.614644-80.731381-96.64775z" fill="#1296db" p-id="4856"></path><path d="M539.053455 483.446042H516.726065c-40.629518 0-72.303959 4.963736-97.458079 14.2241-0.260059 0.090455-0.62188-0.086686-0.893246-0.045227l-124.564526 17.359885 115.654676-143.680752v-0.2186a34.052662 34.052662 0 1 0-52.927674-42.86075L185.33543 539.415276a27.38912 27.38912 0 0 0-4.070489 6.708771l-11.947642 14.766832a33.487316 33.487316 0 0 0-4.236324 35.982376 34.007435 34.007435 0 0 0 30.374145 19.587348l199.020568 2.374452a341.26911 341.26911 0 0 1 5.276561 42.992664l5.28033 170.651515h245.654059l5.325557-170.651515 16.519404 170.651515h79.457469c-10.11969-106.443308-23.718141-238.387481-32.126718-255.479769-28.516042-58.174083-72.624322-93.560962-180.808895-93.553423z m-63.997145 347.472838H419.222758l185.463576-331.73738a168.284601 168.284601 0 0 1 46.757867 16.334725z" fill="#1296db" p-id="4857"></path><path d="M819.544122 361.734628l-25.018436 24.961902 1.711113 1.745034-55.166443 55.396351-11.721503-11.589589-18.215442-18.211673-8.90985 8.811857 18.532035 18.347355-52.580928 52.562084-8.72894-3.214933-5.005194 4.880819a147.555255 147.555255 0 0 1 39.826727 28.772332l58.388915-68.727205-3.844352-3.799123 55.260668-55.43781 4.07049 3.757665 24.686767-25.014667z" fill="#1296db" p-id="4858"></path></svg>