<?xml version="1.0" standalone="no"?><!DOCTYPE svg PUBLIC "-//W3C//DTD SVG 1.1//EN" "http://www.w3.org/Graphics/SVG/1.1/DTD/svg11.dtd"><svg t="1749328869195" class="icon" viewBox="0 0 1024 1024" version="1.1" xmlns="http://www.w3.org/2000/svg" p-id="7735" xmlns:xlink="http://www.w3.org/1999/xlink" width="128" height="128"><path d="M554.666667 393.481481l20.859259 44.562963c10.42963 22.755556 32.237037 38.874074 56.888889 42.666667l52.148148 7.585185-39.822222 40.770371c-17.066667 17.066667-24.651852 41.718519-20.85926 65.422222l8.533334 54.044444-40.770371-22.755555c-11.377778-6.637037-23.703704-9.481481-36.977777-9.481482s-25.6 2.844444-36.977778 9.481482l-41.718519 22.755555 8.533334-54.044444c3.792593-23.703704-3.792593-48.355556-20.85926-65.422222l-39.822222-40.770371 52.148148-7.585185c24.651852-3.792593 46.459259-19.911111 56.888889-42.666667l21.807408-44.562963m0-108.088888c-6.637037 0-13.274074 3.792593-17.066667 10.429629l-54.992593 117.570371c-2.844444 5.688889-7.585185 9.481481-14.222222 10.429629l-125.155555 18.962963c-15.17037 2.844444-20.859259 21.807407-10.42963 32.237037l91.97037 93.866667c3.792593 4.740741 5.688889 10.42963 4.740741 16.118518L407.703704 716.8c-1.896296 12.325926 7.585185 21.807407 18.962963 21.807407 2.844444 0 5.688889-0.948148 9.481481-2.844444l109.985185-60.681482c2.844444-1.896296 5.688889-1.896296 9.481482-1.896296 2.844444 0 6.637037 0.948148 9.481481 1.896296l109.985185 60.681482c2.844444 1.896296 5.688889 2.844444 9.481482 2.844444 11.377778 0 20.859259-9.481481 18.962963-21.807407l-21.807407-131.792593c-0.948148-5.688889 0.948148-12.325926 4.74074-16.118518l91.970371-93.866667c10.42963-11.377778 4.740741-29.392593-10.42963-32.237037l-125.155556-18.962963c-6.637037-0.948148-11.377778-4.740741-14.222222-10.429629l-54.992592-117.570371c-4.740741-6.637037-12.325926-10.42963-18.962963-10.429629z" fill="#1296db" p-id="7736"></path><path d="M963.318519 420.02963C938.666667 216.177778 766.103704 56.888889 555.614815 56.888889 329.955556 56.888889 146.014815 240.82963 146.014815 466.488889v4.740741C117.57037 500.622222 56.888889 567.940741 56.888889 614.4c0 52.148148 49.303704 72.059259 84.385185 73.007407l39.822222 8.533334 7.585185 197.214815c0 39.822222 33.185185 73.007407 73.955556 73.007407h150.755556c16.118519 0 29.392593-13.274074 29.392592-29.392593s-13.274074-29.392593-29.392592-29.392592H263.585185c-7.585185 0-15.17037-6.637037-15.17037-15.170371l-9.481482-243.674074-87.229629-18.962963-2.844445-0.948148h-2.844444c-2.844444 0-12.325926-0.948148-19.911111-3.792592-9.481481-3.792593-9.481481-7.585185-9.481482-10.42963 0-17.066667 36.977778-68.266667 79.644445-109.985185 7.585185-7.585185 10.42963-19.911111 7.585185-29.392593 0.948148-2.844444 0.948148-5.688889 0.948148-8.533333 0-193.422222 157.392593-350.814815 350.814815-350.814815 143.17037 0 266.42963 86.281481 320.474074 209.540741 30.340741 75.851852 79.644444 266.42963-97.659259 451.318518 0 0-11.377778 51.2 47.407407 36.02963 0 0 164.02963-134.637037 137.481482-392.533333z" fill="#1296db" p-id="7737"></path></svg>