<?xml version="1.0" standalone="no"?><!DOCTYPE svg PUBLIC "-//W3C//DTD SVG 1.1//EN" "http://www.w3.org/Graphics/SVG/1.1/DTD/svg11.dtd"><svg t="1749328948833" class="icon" viewBox="0 0 1024 1024" version="1.1" xmlns="http://www.w3.org/2000/svg" p-id="9242" xmlns:xlink="http://www.w3.org/1999/xlink" width="128" height="128"><path d="M928 192s0 64-32 128c41.6 22.4 83.2 38.4 124.8 51.2-67.2 67.2-166.4 134.4-230.4 166.4-73.6 35.2-192 73.6-320 96-12.8 3.2-25.6-6.4-28.8-16L320 256c169.6 0 240 6.4 320 0 73.6-6.4 224-32 288-64z" fill="#42526e" p-id="9243"></path><path d="M384 416c-19.2-3.2 60.8 214.4 60.8 211.2l3.2 3.2s3.2 0 3.2-3.2c3.2-12.8 22.4-54.4 35.2-70.4 12.8-22.4 51.2-64 64-83.2-3.2-3.2-147.2-54.4-166.4-57.6z" fill="#42526e" p-id="9244"></path><path d="M105.6 246.4C140.8 214.4 192 176 224 160c38.4-19.2 96-41.6 166.4-54.4 32-6.4 64 12.8 73.6 44.8l86.4 297.6c6.4 16-3.2 35.2-22.4 38.4-60.8 19.2-112 38.4-147.2 54.4-44.8 22.4-92.8 60.8-160 118.4-3.2 3.2-9.6 3.2-12.8 0l-3.2-3.2-105.6-384c-3.2-9.6 0-19.2 6.4-25.6z" fill="#42526e" p-id="9245"></path><path d="M41.6 224C19.2 217.6 3.2 198.4 3.2 176 3.2 150.4 22.4 128 51.2 128s48 22.4 48 48c0 12.8-6.4 25.6-12.8 32 6.4 3.2 12.8 9.6 16 19.2l192 720c3.2 16-6.4 35.2-22.4 38.4-16 3.2-35.2-6.4-38.4-22.4l-192-720c-3.2-6.4-3.2-12.8 0-19.2z" fill="#42526e" p-id="9246"></path></svg>