<?xml version="1.0" standalone="no"?><!DOCTYPE svg PUBLIC "-//W3C//DTD SVG 1.1//EN" "http://www.w3.org/Graphics/SVG/1.1/DTD/svg11.dtd"><svg t="1749329010731" class="icon" viewBox="0 0 1024 1024" version="1.1" xmlns="http://www.w3.org/2000/svg" p-id="10495" xmlns:xlink="http://www.w3.org/1999/xlink" width="128" height="128"><path d="M302.828308 945.230769c-230.321231-100.903385-289.358769-201.767385-253.952-338.274461 23.630769-100.903385 118.153846-178.018462 129.96923-278.921846 35.406769 53.405538 35.406769 94.916923 41.314462 148.361846C332.366769 363.638154 450.481231 215.276308 426.850462 78.769231c0 0 283.451077 160.216615 301.174153 373.878154 23.630769-41.550769 59.076923-195.820308 35.446154-237.371077C840.231385 262.695385 1265.427692 684.110769 680.763077 945.230769c112.246154-172.110769 29.538462-403.574154-159.428923-510.385231 11.815385 47.497846-5.907692 166.203077-88.615385 243.318154 17.723077-77.154462-29.499077-154.308923-29.499077-154.308923s-17.723077 94.956308-76.8 166.203077C273.329231 755.278769 231.975385 826.486154 302.867692 945.230769z" fill="#1296db" p-id="10496"></path></svg>