<svg width="60" height="60" viewBox="0 0 60 60" fill="none" xmlns="http://www.w3.org/2000/svg">
<path fill-rule="evenodd" clip-rule="evenodd" d="M36.185 38.4825L29.9975 35.44L23.81 38.4825L24.7925 31.655L19.985 26.71L26.78 25.535L29.9975 19.435L33.2175 25.535L40.01 26.71L35.2025 31.655L36.185 38.4825ZM53.125 26.2775H54.375V10.25H5.625V26.4725H6.875C9.0325 26.4725 10.6575 27.99 10.6575 30.0025C10.6575 32.0525 8.96 33.7225 6.875 33.7225H5.625V49.75H54.375V33.7225H53.125C51.0375 33.7225 49.3425 32.0525 49.3425 30.0025C49.3425 27.9475 51.0375 26.2775 53.125 26.2775Z" fill="#171D2F"/>
</svg>
