<svg width="24" height="24" viewBox="0 0 24 24" fill="none" xmlns="http://www.w3.org/2000/svg">
<path fill-rule="evenodd" clip-rule="evenodd" d="M20.3789 10.0302L20.4619 10.7762L21.9529 10.6082L21.8689 9.86318C21.4119 5.78618 18.2449 2.62218 14.1669 2.16918L13.4209 2.08618L13.2559 3.57718L14.0009 3.66018C17.3779 4.03518 19.9999 6.65518 20.3789 10.0302Z" fill="#171D2F"/>
<path fill-rule="evenodd" clip-rule="evenodd" d="M16.8475 10.1005L16.9915 10.8365L18.4635 10.5505L18.3205 9.81449C17.9145 7.73249 16.3085 6.12549 14.2275 5.72149L13.4915 5.57849L13.2045 7.05049L13.9405 7.19349C15.4185 7.48049 16.5595 8.62149 16.8475 10.1005Z" fill="#171D2F"/>
<path fill-rule="evenodd" clip-rule="evenodd" d="M13.6024 15.6298C13.0824 15.4498 11.5874 14.8458 10.2204 13.4798C8.93743 12.1968 8.40243 10.7788 8.24543 10.2848L9.94443 7.33378L6.24643 2.25378L5.85543 2.48378C4.27343 3.41178 3.11343 4.57178 2.20443 6.13478L2.14543 6.29478C1.63143 9.03878 3.20243 13.0828 6.05143 16.3588C9.14143 19.9118 13.1534 21.9138 17.1354 21.9138C17.3154 21.9138 17.4964 21.9098 17.6754 21.9018L17.7944 21.8968L17.8974 21.8378C19.4994 20.9408 20.6644 19.7768 21.5604 18.1748L21.7754 17.7898L16.5474 13.9348L13.6024 15.6298Z" fill="#171D2F"/>
</svg>
