<svg width="60" height="60" viewBox="0 0 60 60" fill="none" xmlns="http://www.w3.org/2000/svg">
<path d="M11.4313 14.0001C11.1606 13.5059 10.793 13.0713 10.3506 12.7223C9.90819 12.3733 9.39997 12.1171 8.85631 11.9688C6.37333 11.319 3.81668 10.9934 1.25009 11.0001H0.856338C0.742541 11.0009 0.630029 11.0242 0.525287 11.0687C0.420545 11.1132 0.325643 11.178 0.246051 11.2593C0.166458 11.3407 0.103748 11.437 0.0615345 11.5426C0.019321 11.6483 -0.00156127 11.7613 9.091e-05 11.8751V33.0563C9.091e-05 33.2867 0.0916193 33.5076 0.254541 33.6706C0.417463 33.8335 0.638432 33.925 0.868838 33.925H3.58133C4.4985 33.9285 5.39219 33.6351 6.1289 33.0888C6.8656 32.5424 7.40581 31.7724 7.66882 30.8938L11.7813 17.3188C11.9485 16.7704 12.0036 16.194 11.9435 15.6239C11.8834 15.0538 11.7092 14.5015 11.4313 14.0001Z" fill="#BDE162"/>
<path d="M46.0123 20.7875C45.7906 20.1872 45.6764 19.5525 45.6748 18.9125C45.629 18.9154 45.5831 18.9154 45.5373 18.9125L32.7624 13.8063C32.0262 13.507 31.2133 13.4522 30.4436 13.65C28.3936 14.1875 24.4499 15.9063 21.0687 21.4313C21.0687 21.4688 19.2937 24.3625 20.9562 25.875C21.0187 25.925 22.5124 27.1687 25.4124 25.3187C25.8437 24.8687 28.4874 22.225 31.6186 21.9375C31.7047 21.9303 31.7914 21.941 31.8732 21.969C31.9549 21.9969 32.03 22.0416 32.0936 22.1L47.4498 36.1562C47.5114 36.2178 47.5698 36.2825 47.6248 36.35C49.3436 36.0812 50.4811 34.5125 50.8498 33.925L46.0123 20.7875Z" fill="#BDE162"/>
<path d="M31.4624 23.2125C28.7124 23.6187 26.2999 26.2 26.2749 26.225C26.2396 26.2631 26.1997 26.2967 26.1561 26.325C22.3562 28.7937 20.2062 26.875 20.1124 26.7937C17.6812 24.5875 19.9124 20.9312 20.0062 20.775C20.9821 19.1568 22.158 17.668 23.5062 16.3438H13.1999C13.181 16.7972 13.1054 17.2465 12.9749 17.6812L8.94995 31C8.99254 31.0219 9.03068 31.0516 9.06245 31.0875C15.9749 38.8624 25.1249 45.7749 28.7499 48.3874C29.0195 48.5817 29.3374 48.6979 29.6688 48.7232C30.0001 48.7485 30.332 48.6818 30.6279 48.5306C30.9239 48.3795 31.1723 48.1496 31.346 47.8662C31.5197 47.5829 31.6119 47.2572 31.6124 46.9249C31.6057 46.456 31.4175 46.008 31.0874 45.6749L26.0874 40.6749C26.0288 40.6168 25.9823 40.5477 25.9506 40.4715C25.9189 40.3954 25.9025 40.3137 25.9025 40.2312C25.9025 40.1487 25.9189 40.067 25.9506 39.9908C25.9823 39.9146 26.0288 39.8455 26.0874 39.7874C26.2045 39.671 26.3629 39.6057 26.528 39.6057C26.6931 39.6057 26.8515 39.671 26.9686 39.7874L29.6186 42.4374L31.9561 44.7499L33.1249 45.9562C33.5459 46.3089 34.0833 46.4919 34.6321 46.4693C35.1809 46.4468 35.7016 46.2204 36.0923 45.8344C36.483 45.4484 36.7157 44.9305 36.7448 44.382C36.774 43.8335 36.5975 43.2939 36.2499 42.8687L30.7936 37.2437C30.6772 37.1266 30.6119 36.9682 30.6119 36.8031C30.6119 36.6379 30.6772 36.4795 30.7936 36.3624C30.8517 36.3039 30.9209 36.2574 30.997 36.2256C31.0732 36.1939 31.1549 36.1776 31.2374 36.1776C31.3199 36.1776 31.4016 36.1939 31.4777 36.2256C31.5539 36.2574 31.623 36.3039 31.6811 36.3624L32.6061 37.2499L37.1936 41.9937L38.4436 43.2437C38.8538 43.6678 39.4125 43.9164 40.0022 43.9374C40.5919 43.9584 41.1667 43.7501 41.6061 43.3562C41.8406 43.1474 42.0294 42.8925 42.1608 42.6074C42.2922 42.3223 42.3634 42.0132 42.3699 41.6993C42.3763 41.3854 42.3179 41.0736 42.1983 40.7833C42.0787 40.4931 41.9005 40.2306 41.6748 40.0124L39.0436 37.4624L34.8936 33.4437C34.7893 33.3256 34.7334 33.1725 34.7371 33.015C34.7409 32.8575 34.804 32.7072 34.9138 32.5942C35.0236 32.4812 35.1721 32.4139 35.3294 32.4057C35.4867 32.3975 35.6414 32.449 35.7624 32.5499L38.4561 35.1562L39.9123 36.5687L43.6623 40.2062C43.8614 40.4292 44.1046 40.6086 44.3765 40.7329C44.6484 40.8572 44.9431 40.9238 45.2421 40.9284C45.541 40.933 45.8376 40.8757 46.1133 40.7598C46.3889 40.644 46.6375 40.4723 46.8435 40.2556C47.0494 40.0388 47.2081 39.7817 47.3096 39.5005C47.4112 39.2193 47.4533 38.9201 47.4333 38.6218C47.4134 38.3235 47.3318 38.0326 47.1937 37.7674C47.0556 37.5022 46.864 37.2686 46.6311 37.0812L31.4624 23.2125Z" fill="#BDE162"/>
<path d="M59.1561 13.825H58.4123C55.619 13.8075 52.8333 14.118 50.1124 14.75C49.5401 14.8893 49.0043 15.1493 48.5408 15.5125C48.0773 15.8758 47.6968 16.3339 47.4249 16.8563C47.1376 17.3923 46.9679 17.9833 46.927 18.5901C46.886 19.1968 46.9748 19.8053 47.1874 20.375L52.1873 33.9687C52.4914 34.7868 53.0379 35.4926 53.7538 35.9918C54.4696 36.491 55.3208 36.7599 56.1936 36.7625H59.1248C59.241 36.7633 59.3562 36.7409 59.4636 36.6964C59.571 36.652 59.6683 36.5864 59.7499 36.5037C59.8315 36.4209 59.8957 36.3226 59.9386 36.2146C59.9815 36.1067 60.0023 35.9911 59.9998 35.875V14.6938C60.0015 14.4672 59.9139 14.249 59.7561 14.0864C59.5982 13.9239 59.3826 13.83 59.1561 13.825Z" fill="#BDE162"/>
</svg>
