<svg width="60" height="60" viewBox="0 0 60 60" fill="none" xmlns="http://www.w3.org/2000/svg">
<path fill-rule="evenodd" clip-rule="evenodd" d="M3 7V18.02L19.875 35.2375V53.045L33.625 47.67V35.2375L50.5 18.02V7H3Z" fill="#171D2F"/>
<path fill-rule="evenodd" clip-rule="evenodd" d="M48.25 43.9192C46.3511 43.9192 44.8064 42.3955 44.8064 40.5225C44.8064 38.6494 46.3511 37.1249 48.25 37.1249C50.1489 37.1249 51.6944 38.6494 51.6944 40.5225C51.6944 42.3955 50.1489 43.9192 48.25 43.9192ZM56.75 38.0437L54.3009 37.0774L54.677 34.5003L50.3247 32.0225L48.2509 33.6324L46.1762 32.0225L41.8238 34.5003L42.1999 37.0774L39.75 38.0437V43.0012L42.2008 43.9684L41.8247 46.5437L46.177 49.0225L48.2509 47.4134L50.3238 49.0225L54.6762 46.5437L54.3001 43.9675L56.75 43.0012V38.0437Z" fill="#171D2F"/>
</svg>
