<svg width="60" height="60" viewBox="0 0 60 60" fill="none" xmlns="http://www.w3.org/2000/svg">
<path d="M38.6762 56.7504L33.2611 55.5471L33.6622 53.742L39.0773 54.9454L38.6762 56.7504ZM41.3838 53.4412L32.2582 51.5359L35.768 34.8891L44.8936 36.7944L41.3838 53.4412ZM9.39428 30.9785L8.59204 30.8782L14.4083 3L15.2105 3.20056C15.7119 3.30084 16.113 3.80224 16.0128 4.30367L10.5976 30.1756C10.4974 30.4765 10.3971 30.677 10.1965 30.7773C9.89568 30.9779 9.59484 31.0788 9.39428 30.9785ZM12.503 30.6776L18.0184 4.70492L19.6229 5.10604L34.4644 12.8275L31.8571 25.1621L30.8543 29.9755L14.2075 30.9783L12.503 30.6776ZM48.704 35.2905C48.5034 35.3908 48.2026 35.4911 48.002 35.3908L46.2972 34.9897L35.2661 32.583L33.5614 32.1818C33.06 32.0816 32.6589 31.5802 32.7591 30.9785L36.6701 12.5269C36.7704 12.2261 36.8707 12.0255 37.0712 11.9253C37.2718 11.825 37.5726 11.7247 37.7732 11.825L52.3137 14.9337C52.8151 15.034 53.2162 15.5354 53.1159 16.1371L51.1103 25.3628L49.5058 32.884L49.1047 34.689C49.1047 34.8896 48.9045 35.09 48.704 35.2905ZM57.0274 24.7613L56.2251 28.4716C55.9243 29.675 55.2223 30.7781 54.2195 31.48C53.4173 31.9814 52.6151 32.182 51.7126 32.182L53.5176 23.7585L54.4201 19.4464C56.3255 20.3489 57.5288 22.5552 57.0274 24.7613Z" fill="#BDE162"/>
<path d="M5.68428 16.7386L7.48932 17.1397H7.68988C8.19128 17.1397 8.59237 16.8389 8.69268 16.3375C8.793 15.8361 8.49212 15.2344 7.89044 15.1341L6.0854 14.733C5.584 14.6327 4.98229 14.9336 4.88204 15.5352C4.78179 16.1369 5.18288 16.538 5.68428 16.7386Z" fill="#BDE162"/>
<path d="M8.69226 8.81674C8.89282 9.0173 9.19366 9.11758 9.4945 9.11758C9.69506 9.11758 9.9959 9.0173 10.1965 8.91702C10.5976 8.51589 10.6979 7.91421 10.2968 7.51309L8.69229 5.70805C8.29117 5.30693 7.68949 5.20665 7.28837 5.60777C6.88725 6.00889 6.78697 6.61057 7.18809 7.01169L8.69226 8.81674Z" fill="#BDE162"/>
<path d="M6.98773 23.6577C6.78717 23.1563 6.18549 22.9557 5.68412 23.1563L3.57827 24.1591C3.07687 24.3597 2.87628 24.9614 3.07687 25.4627C3.27743 25.8639 3.57827 26.0644 3.97936 26.0644C4.07964 26.0644 4.2802 26.0644 4.38048 25.9641L6.48633 24.9613C6.98773 24.7608 7.28857 24.1591 6.98773 23.6577Z" fill="#BDE162"/>
</svg>
