<svg width="24" height="24" viewBox="0 0 24 24" fill="none" xmlns="http://www.w3.org/2000/svg">
<path fill-rule="evenodd" clip-rule="evenodd" d="M11.9998 13.495C10.4908 13.495 9.26278 12.268 9.26278 10.759C9.26278 9.25 10.4908 8.022 11.9998 8.022C13.5088 8.022 14.7358 9.25 14.7358 10.759C14.7358 12.268 13.5088 13.495 11.9998 13.495ZM17.6138 4.652C16.0828 3.073 14.0888 2.203 11.9998 2.203C9.90878 2.203 7.91478 3.073 6.38278 4.653C4.82778 6.257 3.97378 8.412 4.04078 10.566C4.22978 16.67 11.4198 21.423 11.7268 21.622L11.9958 21.797L12.2678 21.625C12.5738 21.431 19.7688 16.793 19.9588 10.565C20.0248 8.412 19.1698 6.256 17.6138 4.652Z" fill="#171D2F"/>
</svg>
