<svg width="60" height="60" viewBox="0 0 60 60" fill="none" xmlns="http://www.w3.org/2000/svg">
<path fill-rule="evenodd" clip-rule="evenodd" d="M50.3687 39.5375C44.2187 41.9875 37.1937 43.2875 29.9937 43.2875C22.7937 43.2875 15.7687 41.9875 9.6437 39.5375C8.7187 39.1625 7.8187 38.7875 6.9437 38.3625C6.5187 38.1625 6.0937 37.9625 5.6687 37.7125L6.2187 53.3125H53.7937L54.3187 37.7125C53.8937 37.9625 53.4687 38.1625 53.0437 38.3625C52.1687 38.7875 51.2687 39.1625 50.3687 39.5375Z" fill="#171D2F"/>
<path fill-rule="evenodd" clip-rule="evenodd" d="M23.5432 13.7623L24.9832 10.4373H35.0157L36.4557 13.7623H23.5432ZM40.5432 13.7623L37.4832 6.68726H22.5157L19.4557 13.7623H5.63574V31.9798L6.25324 32.3423C12.2582 35.8548 19.8407 37.8998 27.8007 38.2223V41.4648H32.1982V38.2223C40.1632 37.8973 47.7457 35.8523 53.7432 32.3423L54.3632 31.9798V13.7623H40.5432Z" fill="#171D2F"/>
</svg>
