<svg width="60" height="60" viewBox="0 0 60 60" fill="none" xmlns="http://www.w3.org/2000/svg">
<path d="M38.676 56.7504L33.2608 55.5471L33.662 53.742L39.0771 54.9454L38.676 56.7504ZM41.3836 53.4412L32.2579 51.5359L35.7678 34.8891L44.8934 36.7944L41.3836 53.4412ZM9.39404 30.9785L8.5918 30.8782L14.408 3L15.2103 3.20056C15.7117 3.30084 16.1128 3.80224 16.0125 4.30367L10.5974 30.1756C10.4971 30.4765 10.3968 30.677 10.1963 30.7773C9.89544 30.9779 9.5946 31.0788 9.39404 30.9785ZM12.5028 30.6776L18.0182 4.70492L19.6227 5.10604L34.4641 12.8275L31.8569 25.1621L30.8541 29.9755L14.2072 30.9783L12.5028 30.6776ZM48.7037 35.2905C48.5032 35.3908 48.2023 35.4911 48.0017 35.3908L46.297 34.9897L35.2659 32.583L33.5611 32.1818C33.0597 32.0816 32.6586 31.5802 32.7589 30.9785L36.6699 12.5269C36.7701 12.2261 36.8704 12.0255 37.071 11.9253C37.2715 11.825 37.5724 11.7247 37.773 11.825L52.3134 14.9337C52.8148 15.034 53.2159 15.5354 53.1157 16.1371L51.1101 25.3628L49.5056 32.884L49.1045 34.689C49.1045 34.8896 48.9043 35.09 48.7037 35.2905ZM57.0271 24.7613L56.2249 28.4716C55.9241 29.675 55.2221 30.7781 54.2193 31.48C53.4171 31.9814 52.6148 32.182 51.7123 32.182L53.5174 23.7585L54.4199 19.4464C56.3252 20.3489 57.5286 22.5552 57.0271 24.7613Z" fill="#171D2F"/>
<path d="M5.68391 16.7386L7.48896 17.1397H7.68952C8.19092 17.1397 8.59201 16.8389 8.69232 16.3375C8.79263 15.8361 8.49176 15.2344 7.89008 15.1341L6.08503 14.733C5.58363 14.6327 4.98192 14.9336 4.88167 15.5352C4.78142 16.1369 5.18251 16.538 5.68391 16.7386Z" fill="#171D2F"/>
<path d="M8.69214 8.81674C8.8927 9.0173 9.19354 9.11758 9.49438 9.11758C9.69494 9.11758 9.99578 9.0173 10.1964 8.91702C10.5975 8.51589 10.6978 7.91421 10.2967 7.51309L8.69217 5.70805C8.29105 5.30693 7.68937 5.20665 7.28825 5.60777C6.88713 6.00889 6.78685 6.61057 7.18797 7.01169L8.69214 8.81674Z" fill="#171D2F"/>
<path d="M6.98773 23.6577C6.78717 23.1563 6.18549 22.9557 5.68412 23.1563L3.57827 24.1591C3.07687 24.3597 2.87628 24.9614 3.07687 25.4627C3.27743 25.8639 3.57827 26.0644 3.97936 26.0644C4.07964 26.0644 4.2802 26.0644 4.38048 25.9641L6.48633 24.9613C6.98773 24.7608 7.28857 24.1591 6.98773 23.6577Z" fill="#171D2F"/>
</svg>
